<?xml version="1.0" encoding="UTF-8" standalone="no"?>
<!-- Created with Inkscape (http://www.inkscape.org/) -->

<svg
   xmlns:dc="http://purl.org/dc/elements/1.1/"
   xmlns:cc="http://creativecommons.org/ns#"
   xmlns:rdf="http://www.w3.org/1999/02/22-rdf-syntax-ns#"
   xmlns:svg="http://www.w3.org/2000/svg"
   xmlns="http://www.w3.org/2000/svg"
   xmlns:inkscape="http://www.inkscape.org/namespaces/inkscape"
   version="1.1"
   width="185.08749"
   height="183.9375"
   id="svg2"
   xml:space="preserve"><metadata
     id="metadata8"><rdf:RDF><cc:Work
         rdf:about=""><dc:format>image/svg+xml</dc:format><dc:type
           rdf:resource="http://purl.org/dc/dcmitype/StillImage" /></cc:Work></rdf:RDF></metadata><defs
     id="defs6"><clipPath
       id="clipPath12"><path
         d="m 146.07,251.27 148.07,0 0,147.15 -148.07,0 0,-147.15 z"
         inkscape:connector-curvature="0"
         id="path14" /></clipPath></defs><g
     transform="matrix(1.25,0,0,-1.25,-182.5875,498.025)"
     clip-path="url(#clipPath12)"
     id="g10"><g
       transform="translate(72,769.89)"
       id="g16"><g
         transform="translate(87.07,-182.72)"
         id="g18"><g
           id="g20" /><g
           id="g22"><g
             id="g24" /><g
             id="g26"><path
               d="m -9.96277,59.77669 134.81647,0"
               inkscape:connector-curvature="0"
               id="path28"
               style="fill:none;stroke:#000000;stroke-width:0.79701;stroke-linecap:butt;stroke-linejoin:miter;stroke-miterlimit:10;stroke-opacity:1;stroke-dasharray:none" /><g
               transform="translate(124.8537,59.77669)"
               id="g30"><g
                 id="g32"><path
                   d="M 4.66248,0 C 3.28098,0.25902 1.0361,1.0361 -0.51805,1.94269 l 0,-3.88538 C 1.0361,-1.0361 3.28098,-0.25902 4.66248,0"
                   inkscape:connector-curvature="0"
                   id="path34"
                   style="fill:#000000;fill-opacity:1;fill-rule:nonzero;stroke:none" /></g></g><path
               d="m 59.77669,-9.96277 0,134.81647"
               inkscape:connector-curvature="0"
               id="path36"
               style="fill:none;stroke:#000000;stroke-width:0.79701;stroke-linecap:butt;stroke-linejoin:miter;stroke-miterlimit:10;stroke-opacity:1;stroke-dasharray:none" /><g
               transform="matrix(0,1,-1,0,59.77669,124.8537)"
               id="g38"><g
                 id="g40"><path
                   d="M 4.66248,0 C 3.28098,0.25902 1.0361,1.0361 -0.51805,1.94269 l 0,-3.88538 C 1.0361,-1.0361 3.28098,-0.25902 4.66248,0"
                   inkscape:connector-curvature="0"
                   id="path42"
                   style="fill:#000000;fill-opacity:1;fill-rule:nonzero;stroke:none" /></g></g><g
               id="g44"><path
                 d="m 11.95532,99.62782 c 0,1.10048 -0.89207,1.99256 -1.99255,1.99256 -1.10047,0 -1.99256,-0.89208 -1.99256,-1.99256 0,-1.10046 0.89209,-1.99255 1.99256,-1.99255 1.10048,0 1.99255,0.89209 1.99255,1.99255 z"
                 inkscape:connector-curvature="0"
                 id="path46"
                 style="fill:#ff0000;fill-opacity:1;fill-rule:nonzero;stroke:#ff0000;stroke-width:0.79701;stroke-linecap:butt;stroke-linejoin:miter;stroke-miterlimit:10;stroke-opacity:1;stroke-dasharray:none" /><path
                 d="m 21.9181,79.70226 c 0,1.10047 -0.89207,1.99255 -1.99255,1.99255 -1.10046,0 -1.99255,-0.89208 -1.99255,-1.99255 0,-1.10047 0.89209,-1.99256 1.99255,-1.99256 1.10048,0 1.99255,0.89209 1.99255,1.99256 z"
                 inkscape:connector-curvature="0"
                 id="path48"
                 style="fill:#ff0000;fill-opacity:1;fill-rule:nonzero;stroke:#ff0000;stroke-width:0.79701;stroke-linecap:butt;stroke-linejoin:miter;stroke-miterlimit:10;stroke-opacity:1;stroke-dasharray:none" /><path
                 d="m 31.88089,89.66504 c 0,1.10048 -0.89207,1.99256 -1.99255,1.99256 -1.10047,0 -1.99256,-0.89208 -1.99256,-1.99256 0,-1.10046 0.89209,-1.99255 1.99256,-1.99255 1.10048,0 1.99255,0.89209 1.99255,1.99255 z"
                 inkscape:connector-curvature="0"
                 id="path50"
                 style="fill:#ff0000;fill-opacity:1;fill-rule:nonzero;stroke:#ff0000;stroke-width:0.79701;stroke-linecap:butt;stroke-linejoin:miter;stroke-miterlimit:10;stroke-opacity:1;stroke-dasharray:none" /><path
                 d="m 26.89949,69.73947 c 0,1.10048 -0.89207,1.99256 -1.99255,1.99256 -1.10047,0 -1.99256,-0.89208 -1.99256,-1.99256 0,-1.10047 0.89209,-1.99255 1.99256,-1.99255 1.10048,0 1.99255,0.89208 1.99255,1.99255 z"
                 inkscape:connector-curvature="0"
                 id="path52"
                 style="fill:#ff0000;fill-opacity:1;fill-rule:nonzero;stroke:#ff0000;stroke-width:0.79701;stroke-linecap:butt;stroke-linejoin:miter;stroke-miterlimit:10;stroke-opacity:1;stroke-dasharray:none" /><path
                 d="m 51.80646,79.70226 c 0,1.10047 -0.89208,1.99255 -1.99256,1.99255 -1.10046,0 -1.99255,-0.89208 -1.99255,-1.99255 0,-1.10047 0.89209,-1.99256 1.99255,-1.99256 1.10048,0 1.99256,0.89209 1.99256,1.99256 z"
                 inkscape:connector-curvature="0"
                 id="path54"
                 style="fill:#ff0000;fill-opacity:1;fill-rule:nonzero;stroke:#ff0000;stroke-width:0.79701;stroke-linecap:butt;stroke-linejoin:miter;stroke-miterlimit:10;stroke-opacity:1;stroke-dasharray:none" /><path
                 d="m 21.9181,49.8139 c 0,1.10048 -0.89207,1.99256 -1.99255,1.99256 -1.10046,0 -1.99255,-0.89208 -1.99255,-1.99256 0,-1.10046 0.89209,-1.99255 1.99255,-1.99255 1.10048,0 1.99255,0.89209 1.99255,1.99255 z"
                 inkscape:connector-curvature="0"
                 id="path56"
                 style="fill:#ff0000;fill-opacity:1;fill-rule:nonzero;stroke:#ff0000;stroke-width:0.79701;stroke-linecap:butt;stroke-linejoin:miter;stroke-miterlimit:10;stroke-opacity:1;stroke-dasharray:none" /></g><g
               id="g58"><path
                 d="m 101.62038,39.85112 c 0,1.10048 -0.89208,1.99255 -1.99256,1.99255 -1.10046,0 -1.99255,-0.89207 -1.99255,-1.99255 0,-1.10046 0.89209,-1.99255 1.99255,-1.99255 1.10048,0 1.99256,0.89209 1.99256,1.99255 z"
                 inkscape:connector-curvature="0"
                 id="path60"
                 style="fill:#0000ff;fill-opacity:1;fill-rule:nonzero;stroke:#0000ff;stroke-width:0.79701;stroke-linecap:butt;stroke-linejoin:miter;stroke-miterlimit:10;stroke-opacity:1;stroke-dasharray:none" /><path
                 d="m 121.54594,29.88834 c 0,1.10048 -0.89207,1.99255 -1.99255,1.99255 -1.10046,0 -1.99255,-0.89207 -1.99255,-1.99255 0,-1.10047 0.89209,-1.99256 1.99255,-1.99256 1.10048,0 1.99255,0.89209 1.99255,1.99256 z"
                 inkscape:connector-curvature="0"
                 id="path62"
                 style="fill:#0000ff;fill-opacity:1;fill-rule:nonzero;stroke:#0000ff;stroke-width:0.79701;stroke-linecap:butt;stroke-linejoin:miter;stroke-miterlimit:10;stroke-opacity:1;stroke-dasharray:none" /><path
                 d="m 116.56454,49.8139 c 0,1.10048 -0.89207,1.99256 -1.99255,1.99256 -1.10046,0 -1.99255,-0.89208 -1.99255,-1.99256 0,-1.10046 0.89209,-1.99255 1.99255,-1.99255 1.10048,0 1.99255,0.89209 1.99255,1.99255 z"
                 inkscape:connector-curvature="0"
                 id="path64"
                 style="fill:#0000ff;fill-opacity:1;fill-rule:nonzero;stroke:#0000ff;stroke-width:0.79701;stroke-linecap:butt;stroke-linejoin:miter;stroke-miterlimit:10;stroke-opacity:1;stroke-dasharray:none" /><path
                 d="m 126.52733,19.92555 c 0,1.10048 -0.89208,1.99255 -1.99256,1.99255 -1.10046,0 -1.99255,-0.89207 -1.99255,-1.99255 0,-1.10046 0.89209,-1.99255 1.99255,-1.99255 1.10048,0 1.99256,0.89209 1.99256,1.99255 z"
                 inkscape:connector-curvature="0"
                 id="path66"
                 style="fill:#0000ff;fill-opacity:1;fill-rule:nonzero;stroke:#0000ff;stroke-width:0.79701;stroke-linecap:butt;stroke-linejoin:miter;stroke-miterlimit:10;stroke-opacity:1;stroke-dasharray:none" /><path
                 d="m 71.73203,19.92555 c 0,1.10048 -0.89208,1.99255 -1.99256,1.99255 -1.10047,0 -1.99255,-0.89207 -1.99255,-1.99255 0,-1.10046 0.89208,-1.99255 1.99255,-1.99255 1.10048,0 1.99256,0.89209 1.99256,1.99255 z"
                 inkscape:connector-curvature="0"
                 id="path68"
                 style="fill:#0000ff;fill-opacity:1;fill-rule:nonzero;stroke:#0000ff;stroke-width:0.79701;stroke-linecap:butt;stroke-linejoin:miter;stroke-miterlimit:10;stroke-opacity:1;stroke-dasharray:none" /><path
                 d="m 41.84367,9.96277 c 0,1.10048 -0.89207,1.99255 -1.99255,1.99255 -1.10046,0 -1.99255,-0.89207 -1.99255,-1.99255 0,-1.10047 0.89209,-1.99256 1.99255,-1.99256 1.10048,0 1.99255,0.89209 1.99255,1.99256 z"
                 inkscape:connector-curvature="0"
                 id="path70"
                 style="fill:#0000ff;fill-opacity:1;fill-rule:nonzero;stroke:#0000ff;stroke-width:0.79701;stroke-linecap:butt;stroke-linejoin:miter;stroke-miterlimit:10;stroke-opacity:1;stroke-dasharray:none" /></g><g
               id="g72"><path
                 d="m 66.75063,69.73947 c 0,1.10048 -0.89208,1.99256 -1.99256,1.99256 -1.10046,0 -1.99255,-0.89208 -1.99255,-1.99256 0,-1.10047 0.89209,-1.99255 1.99255,-1.99255 1.10048,0 1.99256,0.89208 1.99256,1.99255 z"
                 inkscape:connector-curvature="0"
                 id="path74"
                 style="fill:#000000;fill-opacity:1;fill-rule:nonzero;stroke:#000000;stroke-width:0.79701;stroke-linecap:butt;stroke-linejoin:miter;stroke-miterlimit:10;stroke-opacity:1;stroke-dasharray:none" /></g></g></g></g><g
         transform="translate(87.07,-343.91)"
         id="g76"><g
           id="g78" /><g
           id="g80"><g
             id="g82" /><g
             id="g84"><path
               d="m -9.96277,59.77669 134.81647,0"
               inkscape:connector-curvature="0"
               id="path86"
               style="fill:none;stroke:#000000;stroke-width:0.79701;stroke-linecap:butt;stroke-linejoin:miter;stroke-miterlimit:10;stroke-opacity:1;stroke-dasharray:none" /><g
               transform="translate(124.8537,59.77669)"
               id="g88"><g
                 id="g90"><path
                   d="M 4.66248,0 C 3.28098,0.25902 1.0361,1.0361 -0.51805,1.94269 l 0,-3.88538 C 1.0361,-1.0361 3.28098,-0.25902 4.66248,0"
                   inkscape:connector-curvature="0"
                   id="path92"
                   style="fill:#000000;fill-opacity:1;fill-rule:nonzero;stroke:none" /></g></g><path
               d="m 59.77669,-9.96277 0,134.81647"
               inkscape:connector-curvature="0"
               id="path94"
               style="fill:none;stroke:#000000;stroke-width:0.79701;stroke-linecap:butt;stroke-linejoin:miter;stroke-miterlimit:10;stroke-opacity:1;stroke-dasharray:none" /><g
               transform="matrix(0,1,-1,0,59.77669,124.8537)"
               id="g96"><g
                 id="g98"><path
                   d="M 4.66248,0 C 3.28098,0.25902 1.0361,1.0361 -0.51805,1.94269 l 0,-3.88538 C 1.0361,-1.0361 3.28098,-0.25902 4.66248,0"
                   inkscape:connector-curvature="0"
                   id="path100"
                   style="fill:#000000;fill-opacity:1;fill-rule:nonzero;stroke:none" /></g></g><g
               id="g102"><path
                 d="m 11.95532,99.62782 c 0,1.10048 -0.89207,1.99256 -1.99255,1.99256 -1.10047,0 -1.99256,-0.89208 -1.99256,-1.99256 0,-1.10046 0.89209,-1.99255 1.99256,-1.99255 1.10048,0 1.99255,0.89209 1.99255,1.99255 z"
                 inkscape:connector-curvature="0"
                 id="path104"
                 style="fill:#ff0000;fill-opacity:1;fill-rule:nonzero;stroke:#ff0000;stroke-width:0.79701;stroke-linecap:butt;stroke-linejoin:miter;stroke-miterlimit:10;stroke-opacity:1;stroke-dasharray:none" /><path
                 d="m 21.9181,79.70226 c 0,1.10047 -0.89207,1.99255 -1.99255,1.99255 -1.10046,0 -1.99255,-0.89208 -1.99255,-1.99255 0,-1.10047 0.89209,-1.99256 1.99255,-1.99256 1.10048,0 1.99255,0.89209 1.99255,1.99256 z"
                 inkscape:connector-curvature="0"
                 id="path106"
                 style="fill:#ff0000;fill-opacity:1;fill-rule:nonzero;stroke:#ff0000;stroke-width:0.79701;stroke-linecap:butt;stroke-linejoin:miter;stroke-miterlimit:10;stroke-opacity:1;stroke-dasharray:none" /><path
                 d="m 31.88089,89.66504 c 0,1.10048 -0.89207,1.99256 -1.99255,1.99256 -1.10047,0 -1.99256,-0.89208 -1.99256,-1.99256 0,-1.10046 0.89209,-1.99255 1.99256,-1.99255 1.10048,0 1.99255,0.89209 1.99255,1.99255 z"
                 inkscape:connector-curvature="0"
                 id="path108"
                 style="fill:#ff0000;fill-opacity:1;fill-rule:nonzero;stroke:#ff0000;stroke-width:0.79701;stroke-linecap:butt;stroke-linejoin:miter;stroke-miterlimit:10;stroke-opacity:1;stroke-dasharray:none" /><path
                 d="m 26.89949,69.73947 c 0,1.10048 -0.89207,1.99256 -1.99255,1.99256 -1.10047,0 -1.99256,-0.89208 -1.99256,-1.99256 0,-1.10047 0.89209,-1.99255 1.99256,-1.99255 1.10048,0 1.99255,0.89208 1.99255,1.99255 z"
                 inkscape:connector-curvature="0"
                 id="path110"
                 style="fill:#ff0000;fill-opacity:1;fill-rule:nonzero;stroke:#ff0000;stroke-width:0.79701;stroke-linecap:butt;stroke-linejoin:miter;stroke-miterlimit:10;stroke-opacity:1;stroke-dasharray:none" /><path
                 d="m 51.80646,79.70226 c 0,1.10047 -0.89208,1.99255 -1.99256,1.99255 -1.10046,0 -1.99255,-0.89208 -1.99255,-1.99255 0,-1.10047 0.89209,-1.99256 1.99255,-1.99256 1.10048,0 1.99256,0.89209 1.99256,1.99256 z"
                 inkscape:connector-curvature="0"
                 id="path112"
                 style="fill:#ff0000;fill-opacity:1;fill-rule:nonzero;stroke:#ff0000;stroke-width:0.79701;stroke-linecap:butt;stroke-linejoin:miter;stroke-miterlimit:10;stroke-opacity:1;stroke-dasharray:none" /><path
                 d="m 21.9181,49.8139 c 0,1.10048 -0.89207,1.99256 -1.99255,1.99256 -1.10046,0 -1.99255,-0.89208 -1.99255,-1.99256 0,-1.10046 0.89209,-1.99255 1.99255,-1.99255 1.10048,0 1.99255,0.89209 1.99255,1.99255 z"
                 inkscape:connector-curvature="0"
                 id="path114"
                 style="fill:#ff0000;fill-opacity:1;fill-rule:nonzero;stroke:#ff0000;stroke-width:0.79701;stroke-linecap:butt;stroke-linejoin:miter;stroke-miterlimit:10;stroke-opacity:1;stroke-dasharray:none" /></g><g
               id="g116"><path
                 d="m 101.62038,39.85112 c 0,1.10048 -0.89208,1.99255 -1.99256,1.99255 -1.10046,0 -1.99255,-0.89207 -1.99255,-1.99255 0,-1.10046 0.89209,-1.99255 1.99255,-1.99255 1.10048,0 1.99256,0.89209 1.99256,1.99255 z"
                 inkscape:connector-curvature="0"
                 id="path118"
                 style="fill:#0000ff;fill-opacity:1;fill-rule:nonzero;stroke:#0000ff;stroke-width:0.79701;stroke-linecap:butt;stroke-linejoin:miter;stroke-miterlimit:10;stroke-opacity:1;stroke-dasharray:none" /><path
                 d="m 121.54594,29.88834 c 0,1.10048 -0.89207,1.99255 -1.99255,1.99255 -1.10046,0 -1.99255,-0.89207 -1.99255,-1.99255 0,-1.10047 0.89209,-1.99256 1.99255,-1.99256 1.10048,0 1.99255,0.89209 1.99255,1.99256 z"
                 inkscape:connector-curvature="0"
                 id="path120"
                 style="fill:#0000ff;fill-opacity:1;fill-rule:nonzero;stroke:#0000ff;stroke-width:0.79701;stroke-linecap:butt;stroke-linejoin:miter;stroke-miterlimit:10;stroke-opacity:1;stroke-dasharray:none" /><path
                 d="m 116.56454,49.8139 c 0,1.10048 -0.89207,1.99256 -1.99255,1.99256 -1.10046,0 -1.99255,-0.89208 -1.99255,-1.99256 0,-1.10046 0.89209,-1.99255 1.99255,-1.99255 1.10048,0 1.99255,0.89209 1.99255,1.99255 z"
                 inkscape:connector-curvature="0"
                 id="path122"
                 style="fill:#0000ff;fill-opacity:1;fill-rule:nonzero;stroke:#0000ff;stroke-width:0.79701;stroke-linecap:butt;stroke-linejoin:miter;stroke-miterlimit:10;stroke-opacity:1;stroke-dasharray:none" /><path
                 d="m 126.52733,19.92555 c 0,1.10048 -0.89208,1.99255 -1.99256,1.99255 -1.10046,0 -1.99255,-0.89207 -1.99255,-1.99255 0,-1.10046 0.89209,-1.99255 1.99255,-1.99255 1.10048,0 1.99256,0.89209 1.99256,1.99255 z"
                 inkscape:connector-curvature="0"
                 id="path124"
                 style="fill:#0000ff;fill-opacity:1;fill-rule:nonzero;stroke:#0000ff;stroke-width:0.79701;stroke-linecap:butt;stroke-linejoin:miter;stroke-miterlimit:10;stroke-opacity:1;stroke-dasharray:none" /><path
                 d="m 71.73203,19.92555 c 0,1.10048 -0.89208,1.99255 -1.99256,1.99255 -1.10047,0 -1.99255,-0.89207 -1.99255,-1.99255 0,-1.10046 0.89208,-1.99255 1.99255,-1.99255 1.10048,0 1.99256,0.89209 1.99256,1.99255 z"
                 inkscape:connector-curvature="0"
                 id="path126"
                 style="fill:#0000ff;fill-opacity:1;fill-rule:nonzero;stroke:#0000ff;stroke-width:0.79701;stroke-linecap:butt;stroke-linejoin:miter;stroke-miterlimit:10;stroke-opacity:1;stroke-dasharray:none" /><path
                 d="m 41.84367,9.96277 c 0,1.10048 -0.89207,1.99255 -1.99255,1.99255 -1.10046,0 -1.99255,-0.89207 -1.99255,-1.99255 0,-1.10047 0.89209,-1.99256 1.99255,-1.99256 1.10048,0 1.99255,0.89209 1.99255,1.99256 z"
                 inkscape:connector-curvature="0"
                 id="path128"
                 style="fill:#0000ff;fill-opacity:1;fill-rule:nonzero;stroke:#0000ff;stroke-width:0.79701;stroke-linecap:butt;stroke-linejoin:miter;stroke-miterlimit:10;stroke-opacity:1;stroke-dasharray:none" /></g><g
               id="g130"><path
                 d="m 66.75063,69.73947 c 0,1.10048 -0.89208,1.99256 -1.99256,1.99256 -1.10046,0 -1.99255,-0.89208 -1.99255,-1.99256 0,-1.10047 0.89209,-1.99255 1.99255,-1.99255 1.10048,0 1.99256,0.89208 1.99256,1.99255 z"
                 inkscape:connector-curvature="0"
                 id="path132"
                 style="fill:#000000;fill-opacity:1;fill-rule:nonzero;stroke:#000000;stroke-width:0.79701;stroke-linecap:butt;stroke-linejoin:miter;stroke-miterlimit:10;stroke-opacity:1;stroke-dasharray:none" /></g><g
               id="g134"><path
                 d="M 64.75807,69.73947 15.95882,96.35742"
                 inkscape:connector-curvature="0"
                 id="path136"
                 style="fill:none;stroke:#000000;stroke-width:1.59404004;stroke-linecap:butt;stroke-linejoin:miter;stroke-miterlimit:10;stroke-opacity:1;stroke-dasharray:none" /><g
                 transform="matrix(-0.8799,0.47992,-0.47992,-0.8799,15.95882,96.35742)"
                 id="g138"><g
                   id="g140"><path
                     d="M 6.81448,0 C 4.79533,0.37857 1.51433,1.51433 -0.75716,2.83936 l 0,-5.67872 C 1.51433,-1.51433 4.79533,-0.37857 6.81448,0"
                     inkscape:connector-curvature="0"
                     id="path142"
                     style="fill:#000000;fill-opacity:1;fill-rule:nonzero;stroke:none" /></g></g></g><g
               id="g144"><path
                 d="M 64.75807,69.73947 26.58086,78.22346"
                 inkscape:connector-curvature="0"
                 id="path146"
                 style="fill:none;stroke:#000000;stroke-width:1.59404004;stroke-linecap:butt;stroke-linejoin:miter;stroke-miterlimit:10;stroke-opacity:1;stroke-dasharray:none" /><g
                 transform="matrix(-0.97664,0.21701,-0.21701,-0.97664,26.58086,78.22346)"
                 id="g148"><g
                   id="g150"><path
                     d="M 6.81448,0 C 4.79533,0.37857 1.51433,1.51433 -0.75716,2.83936 l 0,-5.67872 C 1.51433,-1.51433 4.79533,-0.37857 6.81448,0"
                     inkscape:connector-curvature="0"
                     id="path152"
                     style="fill:#000000;fill-opacity:1;fill-rule:nonzero;stroke:none" /></g></g></g><g
               id="g154"><path
                 d="M 64.75807,69.73947 35.8086,86.28215"
                 inkscape:connector-curvature="0"
                 id="path156"
                 style="fill:none;stroke:#000000;stroke-width:1.59404004;stroke-linecap:butt;stroke-linejoin:miter;stroke-miterlimit:10;stroke-opacity:1;stroke-dasharray:none" /><g
                 transform="matrix(-0.86877,0.49643,-0.49643,-0.86877,35.8086,86.28215)"
                 id="g158"><g
                   id="g160"><path
                     d="M 6.81448,0 C 4.79533,0.37857 1.51433,1.51433 -0.75716,2.83936 l 0,-5.67872 C 1.51433,-1.51433 4.79533,-0.37857 6.81448,0"
                     inkscape:connector-curvature="0"
                     id="path162"
                     style="fill:#000000;fill-opacity:1;fill-rule:nonzero;stroke:none" /></g></g></g><g
               id="g164"><path
                 d="m 64.75807,69.73947 -33.03663,0"
                 inkscape:connector-curvature="0"
                 id="path166"
                 style="fill:none;stroke:#000000;stroke-width:1.59404004;stroke-linecap:butt;stroke-linejoin:miter;stroke-miterlimit:10;stroke-opacity:1;stroke-dasharray:none" /><g
                 transform="matrix(-1,0,0,-1,31.72144,69.73947)"
                 id="g168"><g
                   id="g170"><path
                     d="M 6.81448,0 C 4.79533,0.37857 1.51433,1.51433 -0.75716,2.83936 l 0,-5.67872 C 1.51433,-1.51433 4.79533,-0.37857 6.81448,0"
                     inkscape:connector-curvature="0"
                     id="path172"
                     style="fill:#000000;fill-opacity:1;fill-rule:nonzero;stroke:none" /></g></g></g><g
               id="g174"><path
                 d="m 64.75807,69.73947 -9.25673,6.17125"
                 inkscape:connector-curvature="0"
                 id="path176"
                 style="fill:none;stroke:#000000;stroke-width:1.59404004;stroke-linecap:butt;stroke-linejoin:miter;stroke-miterlimit:10;stroke-opacity:1;stroke-dasharray:none" /><g
                 transform="matrix(-0.83461,0.5564,-0.5564,-0.83461,55.50134,75.91072)"
                 id="g178"><g
                   id="g180"><path
                     d="M 6.81448,0 C 4.79533,0.37857 1.51433,1.51433 -0.75716,2.83936 l 0,-5.67872 C 1.51433,-1.51433 4.79533,-0.37857 6.81448,0"
                     inkscape:connector-curvature="0"
                     id="path182"
                     style="fill:#000000;fill-opacity:1;fill-rule:nonzero;stroke:none" /></g></g></g><g
               id="g184"><path
                 d="M 64.75807,69.73947 26.16295,52.58604"
                 inkscape:connector-curvature="0"
                 id="path186"
                 style="fill:none;stroke:#000000;stroke-width:1.59404004;stroke-linecap:butt;stroke-linejoin:miter;stroke-miterlimit:10;stroke-opacity:1;stroke-dasharray:none" /><g
                 transform="matrix(-0.91531,-0.4068,0.4068,-0.91531,26.16295,52.58604)"
                 id="g188"><g
                   id="g190"><path
                     d="M 6.81448,0 C 4.79533,0.37857 1.51433,1.51433 -0.75716,2.83936 l 0,-5.67872 C 1.51433,-1.51433 4.79533,-0.37857 6.81448,0"
                     inkscape:connector-curvature="0"
                     id="path192"
                     style="fill:#000000;fill-opacity:1;fill-rule:nonzero;stroke:none" /></g></g></g></g></g></g><g
         transform="translate(87.07,-505.11)"
         id="g194"><g
           id="g196" /><g
           id="g198"><g
             id="g200" /><g
             id="g202"><path
               d="m -9.96277,59.77669 134.81647,0"
               inkscape:connector-curvature="0"
               id="path204"
               style="fill:none;stroke:#000000;stroke-width:0.79701;stroke-linecap:butt;stroke-linejoin:miter;stroke-miterlimit:10;stroke-opacity:1;stroke-dasharray:none" /><g
               transform="translate(124.8537,59.77669)"
               id="g206"><g
                 id="g208"><path
                   d="M 4.66248,0 C 3.28098,0.25902 1.0361,1.0361 -0.51805,1.94269 l 0,-3.88538 C 1.0361,-1.0361 3.28098,-0.25902 4.66248,0"
                   inkscape:connector-curvature="0"
                   id="path210"
                   style="fill:#000000;fill-opacity:1;fill-rule:nonzero;stroke:none" /></g></g><path
               d="m 59.77669,-9.96277 0,134.81647"
               inkscape:connector-curvature="0"
               id="path212"
               style="fill:none;stroke:#000000;stroke-width:0.79701;stroke-linecap:butt;stroke-linejoin:miter;stroke-miterlimit:10;stroke-opacity:1;stroke-dasharray:none" /><g
               transform="matrix(0,1,-1,0,59.77669,124.8537)"
               id="g214"><g
                 id="g216"><path
                   d="M 4.66248,0 C 3.28098,0.25902 1.0361,1.0361 -0.51805,1.94269 l 0,-3.88538 C 1.0361,-1.0361 3.28098,-0.25902 4.66248,0"
                   inkscape:connector-curvature="0"
                   id="path218"
                   style="fill:#000000;fill-opacity:1;fill-rule:nonzero;stroke:none" /></g></g><g
               id="g220"><path
                 d="m 11.95532,99.62782 c 0,1.10048 -0.89207,1.99256 -1.99255,1.99256 -1.10047,0 -1.99256,-0.89208 -1.99256,-1.99256 0,-1.10046 0.89209,-1.99255 1.99256,-1.99255 1.10048,0 1.99255,0.89209 1.99255,1.99255 z"
                 inkscape:connector-curvature="0"
                 id="path222"
                 style="fill:#ff0000;fill-opacity:1;fill-rule:nonzero;stroke:#ff0000;stroke-width:0.79701;stroke-linecap:butt;stroke-linejoin:miter;stroke-miterlimit:10;stroke-opacity:1;stroke-dasharray:none" /><path
                 d="m 21.9181,79.70226 c 0,1.10047 -0.89207,1.99255 -1.99255,1.99255 -1.10046,0 -1.99255,-0.89208 -1.99255,-1.99255 0,-1.10047 0.89209,-1.99256 1.99255,-1.99256 1.10048,0 1.99255,0.89209 1.99255,1.99256 z"
                 inkscape:connector-curvature="0"
                 id="path224"
                 style="fill:#ff0000;fill-opacity:1;fill-rule:nonzero;stroke:#ff0000;stroke-width:0.79701;stroke-linecap:butt;stroke-linejoin:miter;stroke-miterlimit:10;stroke-opacity:1;stroke-dasharray:none" /><path
                 d="m 31.88089,89.66504 c 0,1.10048 -0.89207,1.99256 -1.99255,1.99256 -1.10047,0 -1.99256,-0.89208 -1.99256,-1.99256 0,-1.10046 0.89209,-1.99255 1.99256,-1.99255 1.10048,0 1.99255,0.89209 1.99255,1.99255 z"
                 inkscape:connector-curvature="0"
                 id="path226"
                 style="fill:#ff0000;fill-opacity:1;fill-rule:nonzero;stroke:#ff0000;stroke-width:0.79701;stroke-linecap:butt;stroke-linejoin:miter;stroke-miterlimit:10;stroke-opacity:1;stroke-dasharray:none" /><path
                 d="m 26.89949,69.73947 c 0,1.10048 -0.89207,1.99256 -1.99255,1.99256 -1.10047,0 -1.99256,-0.89208 -1.99256,-1.99256 0,-1.10047 0.89209,-1.99255 1.99256,-1.99255 1.10048,0 1.99255,0.89208 1.99255,1.99255 z"
                 inkscape:connector-curvature="0"
                 id="path228"
                 style="fill:#ff0000;fill-opacity:1;fill-rule:nonzero;stroke:#ff0000;stroke-width:0.79701;stroke-linecap:butt;stroke-linejoin:miter;stroke-miterlimit:10;stroke-opacity:1;stroke-dasharray:none" /><path
                 d="m 51.80646,79.70226 c 0,1.10047 -0.89208,1.99255 -1.99256,1.99255 -1.10046,0 -1.99255,-0.89208 -1.99255,-1.99255 0,-1.10047 0.89209,-1.99256 1.99255,-1.99256 1.10048,0 1.99256,0.89209 1.99256,1.99256 z"
                 inkscape:connector-curvature="0"
                 id="path230"
                 style="fill:#ff0000;fill-opacity:1;fill-rule:nonzero;stroke:#ff0000;stroke-width:0.79701;stroke-linecap:butt;stroke-linejoin:miter;stroke-miterlimit:10;stroke-opacity:1;stroke-dasharray:none" /><path
                 d="m 21.9181,49.8139 c 0,1.10048 -0.89207,1.99256 -1.99255,1.99256 -1.10046,0 -1.99255,-0.89208 -1.99255,-1.99256 0,-1.10046 0.89209,-1.99255 1.99255,-1.99255 1.10048,0 1.99255,0.89209 1.99255,1.99255 z"
                 inkscape:connector-curvature="0"
                 id="path232"
                 style="fill:#ff0000;fill-opacity:1;fill-rule:nonzero;stroke:#ff0000;stroke-width:0.79701;stroke-linecap:butt;stroke-linejoin:miter;stroke-miterlimit:10;stroke-opacity:1;stroke-dasharray:none" /></g><g
               id="g234"><path
                 d="m 101.62038,39.85112 c 0,1.10048 -0.89208,1.99255 -1.99256,1.99255 -1.10046,0 -1.99255,-0.89207 -1.99255,-1.99255 0,-1.10046 0.89209,-1.99255 1.99255,-1.99255 1.10048,0 1.99256,0.89209 1.99256,1.99255 z"
                 inkscape:connector-curvature="0"
                 id="path236"
                 style="fill:#0000ff;fill-opacity:1;fill-rule:nonzero;stroke:#0000ff;stroke-width:0.79701;stroke-linecap:butt;stroke-linejoin:miter;stroke-miterlimit:10;stroke-opacity:1;stroke-dasharray:none" /><path
                 d="m 121.54594,29.88834 c 0,1.10048 -0.89207,1.99255 -1.99255,1.99255 -1.10046,0 -1.99255,-0.89207 -1.99255,-1.99255 0,-1.10047 0.89209,-1.99256 1.99255,-1.99256 1.10048,0 1.99255,0.89209 1.99255,1.99256 z"
                 inkscape:connector-curvature="0"
                 id="path238"
                 style="fill:#0000ff;fill-opacity:1;fill-rule:nonzero;stroke:#0000ff;stroke-width:0.79701;stroke-linecap:butt;stroke-linejoin:miter;stroke-miterlimit:10;stroke-opacity:1;stroke-dasharray:none" /><path
                 d="m 116.56454,49.8139 c 0,1.10048 -0.89207,1.99256 -1.99255,1.99256 -1.10046,0 -1.99255,-0.89208 -1.99255,-1.99256 0,-1.10046 0.89209,-1.99255 1.99255,-1.99255 1.10048,0 1.99255,0.89209 1.99255,1.99255 z"
                 inkscape:connector-curvature="0"
                 id="path240"
                 style="fill:#0000ff;fill-opacity:1;fill-rule:nonzero;stroke:#0000ff;stroke-width:0.79701;stroke-linecap:butt;stroke-linejoin:miter;stroke-miterlimit:10;stroke-opacity:1;stroke-dasharray:none" /><path
                 d="m 126.52733,19.92555 c 0,1.10048 -0.89208,1.99255 -1.99256,1.99255 -1.10046,0 -1.99255,-0.89207 -1.99255,-1.99255 0,-1.10046 0.89209,-1.99255 1.99255,-1.99255 1.10048,0 1.99256,0.89209 1.99256,1.99255 z"
                 inkscape:connector-curvature="0"
                 id="path242"
                 style="fill:#0000ff;fill-opacity:1;fill-rule:nonzero;stroke:#0000ff;stroke-width:0.79701;stroke-linecap:butt;stroke-linejoin:miter;stroke-miterlimit:10;stroke-opacity:1;stroke-dasharray:none" /><path
                 d="m 71.73203,19.92555 c 0,1.10048 -0.89208,1.99255 -1.99256,1.99255 -1.10047,0 -1.99255,-0.89207 -1.99255,-1.99255 0,-1.10046 0.89208,-1.99255 1.99255,-1.99255 1.10048,0 1.99256,0.89209 1.99256,1.99255 z"
                 inkscape:connector-curvature="0"
                 id="path244"
                 style="fill:#0000ff;fill-opacity:1;fill-rule:nonzero;stroke:#0000ff;stroke-width:0.79701;stroke-linecap:butt;stroke-linejoin:miter;stroke-miterlimit:10;stroke-opacity:1;stroke-dasharray:none" /><path
                 d="m 41.84367,9.96277 c 0,1.10048 -0.89207,1.99255 -1.99255,1.99255 -1.10046,0 -1.99255,-0.89207 -1.99255,-1.99255 0,-1.10047 0.89209,-1.99256 1.99255,-1.99256 1.10048,0 1.99255,0.89209 1.99255,1.99256 z"
                 inkscape:connector-curvature="0"
                 id="path246"
                 style="fill:#0000ff;fill-opacity:1;fill-rule:nonzero;stroke:#0000ff;stroke-width:0.79701;stroke-linecap:butt;stroke-linejoin:miter;stroke-miterlimit:10;stroke-opacity:1;stroke-dasharray:none" /></g><g
               id="g248"><path
                 d="m 66.75063,69.73947 c 0,1.10048 -0.89208,1.99256 -1.99256,1.99256 -1.10046,0 -1.99255,-0.89208 -1.99255,-1.99256 0,-1.10047 0.89209,-1.99255 1.99255,-1.99255 1.10048,0 1.99256,0.89208 1.99256,1.99255 z"
                 inkscape:connector-curvature="0"
                 id="path250"
                 style="fill:#000000;fill-opacity:1;fill-rule:nonzero;stroke:#000000;stroke-width:0.79701;stroke-linecap:butt;stroke-linejoin:miter;stroke-miterlimit:10;stroke-opacity:1;stroke-dasharray:none" /></g><g
               id="g252"><path
                 d="M 64.75807,69.73947 94.43565,44.3015"
                 inkscape:connector-curvature="0"
                 id="path254"
                 style="fill:none;stroke:#000000;stroke-width:1.59404004;stroke-linecap:butt;stroke-linejoin:miter;stroke-miterlimit:10;stroke-opacity:1;stroke-dasharray:none" /><g
                 transform="matrix(0.76193,-0.65308,0.65308,0.76193,94.43565,44.3015)"
                 id="g256"><g
                   id="g258"><path
                     d="M 6.81448,0 C 4.79533,0.37857 1.51433,1.51433 -0.75716,2.83936 l 0,-5.67872 C 1.51433,-1.51433 4.79533,-0.37857 6.81448,0"
                     inkscape:connector-curvature="0"
                     id="path260"
                     style="fill:#000000;fill-opacity:1;fill-rule:nonzero;stroke:none" /></g></g></g><g
               id="g262"><path
                 d="M 64.75807,69.73947 114.0232,33.9102"
                 inkscape:connector-curvature="0"
                 id="path264"
                 style="fill:none;stroke:#000000;stroke-width:1.59404004;stroke-linecap:butt;stroke-linejoin:miter;stroke-miterlimit:10;stroke-opacity:1;stroke-dasharray:none" /><g
                 transform="matrix(0.81154,-0.5902,0.5902,0.81154,114.0232,33.9102)"
                 id="g266"><g
                   id="g268"><path
                     d="M 6.81448,0 C 4.79533,0.37857 1.51433,1.51433 -0.75716,2.83936 l 0,-5.67872 C 1.51433,-1.51433 4.79533,-0.37857 6.81448,0"
                     inkscape:connector-curvature="0"
                     id="path270"
                     style="fill:#000000;fill-opacity:1;fill-rule:nonzero;stroke:none" /></g></g></g><g
               id="g272"><path
                 d="M 64.75807,69.73947 108.22325,52.35333"
                 inkscape:connector-curvature="0"
                 id="path274"
                 style="fill:none;stroke:#000000;stroke-width:1.59404004;stroke-linecap:butt;stroke-linejoin:miter;stroke-miterlimit:10;stroke-opacity:1;stroke-dasharray:none" /><g
                 transform="matrix(0.93166,-0.37265,0.37265,0.93166,108.22325,52.35333)"
                 id="g276"><g
                   id="g278"><path
                     d="M 6.81448,0 C 4.79533,0.37857 1.51433,1.51433 -0.75716,2.83936 l 0,-5.67872 C 1.51433,-1.51433 4.79533,-0.37857 6.81448,0"
                     inkscape:connector-curvature="0"
                     id="path280"
                     style="fill:#000000;fill-opacity:1;fill-rule:nonzero;stroke:none" /></g></g></g><g
               id="g282"><path
                 d="M 64.75807,69.73947 119.29115,24.29514"
                 inkscape:connector-curvature="0"
                 id="path284"
                 style="fill:none;stroke:#000000;stroke-width:1.59404004;stroke-linecap:butt;stroke-linejoin:miter;stroke-miterlimit:10;stroke-opacity:1;stroke-dasharray:none" /><g
                 transform="matrix(0.76949,-0.64122,0.64122,0.76949,119.29115,24.29514)"
                 id="g286"><g
                   id="g288"><path
                     d="M 6.81448,0 C 4.79533,0.37857 1.51433,1.51433 -0.75716,2.83936 l 0,-5.67872 C 1.51433,-1.51433 4.79533,-0.37857 6.81448,0"
                     inkscape:connector-curvature="0"
                     id="path290"
                     style="fill:#000000;fill-opacity:1;fill-rule:nonzero;stroke:none" /></g></g></g><g
               id="g292"><path
                 d="M 64.75807,69.73947 69.06091,26.71259"
                 inkscape:connector-curvature="0"
                 id="path294"
                 style="fill:none;stroke:#000000;stroke-width:1.59404004;stroke-linecap:butt;stroke-linejoin:miter;stroke-miterlimit:10;stroke-opacity:1;stroke-dasharray:none" /><g
                 transform="matrix(0.09958,-0.99597,0.99597,0.09958,69.06091,26.71259)"
                 id="g296"><g
                   id="g298"><path
                     d="M 6.81448,0 C 4.79533,0.37857 1.51433,1.51433 -0.75716,2.83936 l 0,-5.67872 C 1.51433,-1.51433 4.79533,-0.37857 6.81448,0"
                     inkscape:connector-curvature="0"
                     id="path300"
                     style="fill:#000000;fill-opacity:1;fill-rule:nonzero;stroke:none" /></g></g></g><g
               id="g302"><path
                 d="M 64.75807,69.73947 42.47809,16.26785"
                 inkscape:connector-curvature="0"
                 id="path304"
                 style="fill:none;stroke:#000000;stroke-width:1.59404004;stroke-linecap:butt;stroke-linejoin:miter;stroke-miterlimit:10;stroke-opacity:1;stroke-dasharray:none" /><g
                 transform="matrix(-0.3855,-0.92525,0.92525,-0.3855,42.47809,16.26785)"
                 id="g306"><g
                   id="g308"><path
                     d="M 6.81448,0 C 4.79533,0.37857 1.51433,1.51433 -0.75716,2.83936 l 0,-5.67872 C 1.51433,-1.51433 4.79533,-0.37857 6.81448,0"
                     inkscape:connector-curvature="0"
                     id="path310"
                     style="fill:#000000;fill-opacity:1;fill-rule:nonzero;stroke:none" /></g></g></g></g></g></g><text
         transform="matrix(1,0,0,-1,231.13,-630.64)"
         id="text312"><tspan
           x="0"
           y="0"
           id="tspan314"
           style="font-size:9.9630003px;font-variant:normal;font-weight:normal;writing-mode:lr-tb;fill:#000000;fill-opacity:1;fill-rule:nonzero;stroke:none;font-family:CMR10;-inkscape-font-specification:CMR10">1</tspan></text>
</g></g></svg>