<?xml version="1.0" encoding="UTF-8" standalone="no"?>
<!-- Created with Inkscape (http://www.inkscape.org/) -->

<svg
   xmlns:dc="http://purl.org/dc/elements/1.1/"
   xmlns:cc="http://creativecommons.org/ns#"
   xmlns:rdf="http://www.w3.org/1999/02/22-rdf-syntax-ns#"
   xmlns:svg="http://www.w3.org/2000/svg"
   xmlns="http://www.w3.org/2000/svg"
   xmlns:inkscape="http://www.inkscape.org/namespaces/inkscape"
   version="1.1"
   width="744.09998"
   height="1052.3625"
   id="svg2"
   xml:space="preserve"><metadata
     id="metadata8"><rdf:RDF><cc:Work
         rdf:about=""><dc:format>image/svg+xml</dc:format><dc:type
           rdf:resource="http://purl.org/dc/dcmitype/StillImage" /></cc:Work></rdf:RDF></metadata><defs
     id="defs6" /><g
     transform="matrix(1.25,0,0,-1.25,0,1052.3625)"
     id="g10"><g
       transform="translate(72,769.89)"
       id="g12"><g
         transform="translate(87.07,-182.72)"
         id="g14"><g
           id="g16" /><g
           id="g18"><g
             id="g20" /><g
             id="g22"><path
               d="m -9.96277,59.77669 134.81647,0"
               inkscape:connector-curvature="0"
               id="path24"
               style="fill:none;stroke:#000000;stroke-width:0.79701;stroke-linecap:butt;stroke-linejoin:miter;stroke-miterlimit:10;stroke-opacity:1;stroke-dasharray:none" /><g
               transform="translate(124.8537,59.77669)"
               id="g26"><g
                 id="g28"><path
                   d="M 4.66248,0 C 3.28098,0.25902 1.0361,1.0361 -0.51805,1.94269 l 0,-3.88538 C 1.0361,-1.0361 3.28098,-0.25902 4.66248,0"
                   inkscape:connector-curvature="0"
                   id="path30"
                   style="fill:#000000;fill-opacity:1;fill-rule:nonzero;stroke:none" /></g></g><path
               d="m 59.77669,-9.96277 0,134.81647"
               inkscape:connector-curvature="0"
               id="path32"
               style="fill:none;stroke:#000000;stroke-width:0.79701;stroke-linecap:butt;stroke-linejoin:miter;stroke-miterlimit:10;stroke-opacity:1;stroke-dasharray:none" /><g
               transform="matrix(0,1,-1,0,59.77669,124.8537)"
               id="g34"><g
                 id="g36"><path
                   d="M 4.66248,0 C 3.28098,0.25902 1.0361,1.0361 -0.51805,1.94269 l 0,-3.88538 C 1.0361,-1.0361 3.28098,-0.25902 4.66248,0"
                   inkscape:connector-curvature="0"
                   id="path38"
                   style="fill:#000000;fill-opacity:1;fill-rule:nonzero;stroke:none" /></g></g><g
               id="g40"><path
                 d="m 11.95532,99.62782 c 0,1.10048 -0.89207,1.99256 -1.99255,1.99256 -1.10047,0 -1.99256,-0.89208 -1.99256,-1.99256 0,-1.10046 0.89209,-1.99255 1.99256,-1.99255 1.10048,0 1.99255,0.89209 1.99255,1.99255 z"
                 inkscape:connector-curvature="0"
                 id="path42"
                 style="fill:#ff0000;fill-opacity:1;fill-rule:nonzero;stroke:#ff0000;stroke-width:0.79701;stroke-linecap:butt;stroke-linejoin:miter;stroke-miterlimit:10;stroke-opacity:1;stroke-dasharray:none" /><path
                 d="m 21.9181,79.70226 c 0,1.10047 -0.89207,1.99255 -1.99255,1.99255 -1.10046,0 -1.99255,-0.89208 -1.99255,-1.99255 0,-1.10047 0.89209,-1.99256 1.99255,-1.99256 1.10048,0 1.99255,0.89209 1.99255,1.99256 z"
                 inkscape:connector-curvature="0"
                 id="path44"
                 style="fill:#ff0000;fill-opacity:1;fill-rule:nonzero;stroke:#ff0000;stroke-width:0.79701;stroke-linecap:butt;stroke-linejoin:miter;stroke-miterlimit:10;stroke-opacity:1;stroke-dasharray:none" /><path
                 d="m 31.88089,89.66504 c 0,1.10048 -0.89207,1.99256 -1.99255,1.99256 -1.10047,0 -1.99256,-0.89208 -1.99256,-1.99256 0,-1.10046 0.89209,-1.99255 1.99256,-1.99255 1.10048,0 1.99255,0.89209 1.99255,1.99255 z"
                 inkscape:connector-curvature="0"
                 id="path46"
                 style="fill:#ff0000;fill-opacity:1;fill-rule:nonzero;stroke:#ff0000;stroke-width:0.79701;stroke-linecap:butt;stroke-linejoin:miter;stroke-miterlimit:10;stroke-opacity:1;stroke-dasharray:none" /><path
                 d="m 26.89949,69.73947 c 0,1.10048 -0.89207,1.99256 -1.99255,1.99256 -1.10047,0 -1.99256,-0.89208 -1.99256,-1.99256 0,-1.10047 0.89209,-1.99255 1.99256,-1.99255 1.10048,0 1.99255,0.89208 1.99255,1.99255 z"
                 inkscape:connector-curvature="0"
                 id="path48"
                 style="fill:#ff0000;fill-opacity:1;fill-rule:nonzero;stroke:#ff0000;stroke-width:0.79701;stroke-linecap:butt;stroke-linejoin:miter;stroke-miterlimit:10;stroke-opacity:1;stroke-dasharray:none" /><path
                 d="m 51.80646,79.70226 c 0,1.10047 -0.89208,1.99255 -1.99256,1.99255 -1.10046,0 -1.99255,-0.89208 -1.99255,-1.99255 0,-1.10047 0.89209,-1.99256 1.99255,-1.99256 1.10048,0 1.99256,0.89209 1.99256,1.99256 z"
                 inkscape:connector-curvature="0"
                 id="path50"
                 style="fill:#ff0000;fill-opacity:1;fill-rule:nonzero;stroke:#ff0000;stroke-width:0.79701;stroke-linecap:butt;stroke-linejoin:miter;stroke-miterlimit:10;stroke-opacity:1;stroke-dasharray:none" /><path
                 d="m 21.9181,49.8139 c 0,1.10048 -0.89207,1.99256 -1.99255,1.99256 -1.10046,0 -1.99255,-0.89208 -1.99255,-1.99256 0,-1.10046 0.89209,-1.99255 1.99255,-1.99255 1.10048,0 1.99255,0.89209 1.99255,1.99255 z"
                 inkscape:connector-curvature="0"
                 id="path52"
                 style="fill:#ff0000;fill-opacity:1;fill-rule:nonzero;stroke:#ff0000;stroke-width:0.79701;stroke-linecap:butt;stroke-linejoin:miter;stroke-miterlimit:10;stroke-opacity:1;stroke-dasharray:none" /></g><g
               id="g54"><path
                 d="m 101.62038,39.85112 c 0,1.10048 -0.89208,1.99255 -1.99256,1.99255 -1.10046,0 -1.99255,-0.89207 -1.99255,-1.99255 0,-1.10046 0.89209,-1.99255 1.99255,-1.99255 1.10048,0 1.99256,0.89209 1.99256,1.99255 z"
                 inkscape:connector-curvature="0"
                 id="path56"
                 style="fill:#0000ff;fill-opacity:1;fill-rule:nonzero;stroke:#0000ff;stroke-width:0.79701;stroke-linecap:butt;stroke-linejoin:miter;stroke-miterlimit:10;stroke-opacity:1;stroke-dasharray:none" /><path
                 d="m 121.54594,29.88834 c 0,1.10048 -0.89207,1.99255 -1.99255,1.99255 -1.10046,0 -1.99255,-0.89207 -1.99255,-1.99255 0,-1.10047 0.89209,-1.99256 1.99255,-1.99256 1.10048,0 1.99255,0.89209 1.99255,1.99256 z"
                 inkscape:connector-curvature="0"
                 id="path58"
                 style="fill:#0000ff;fill-opacity:1;fill-rule:nonzero;stroke:#0000ff;stroke-width:0.79701;stroke-linecap:butt;stroke-linejoin:miter;stroke-miterlimit:10;stroke-opacity:1;stroke-dasharray:none" /><path
                 d="m 116.56454,49.8139 c 0,1.10048 -0.89207,1.99256 -1.99255,1.99256 -1.10046,0 -1.99255,-0.89208 -1.99255,-1.99256 0,-1.10046 0.89209,-1.99255 1.99255,-1.99255 1.10048,0 1.99255,0.89209 1.99255,1.99255 z"
                 inkscape:connector-curvature="0"
                 id="path60"
                 style="fill:#0000ff;fill-opacity:1;fill-rule:nonzero;stroke:#0000ff;stroke-width:0.79701;stroke-linecap:butt;stroke-linejoin:miter;stroke-miterlimit:10;stroke-opacity:1;stroke-dasharray:none" /><path
                 d="m 126.52733,19.92555 c 0,1.10048 -0.89208,1.99255 -1.99256,1.99255 -1.10046,0 -1.99255,-0.89207 -1.99255,-1.99255 0,-1.10046 0.89209,-1.99255 1.99255,-1.99255 1.10048,0 1.99256,0.89209 1.99256,1.99255 z"
                 inkscape:connector-curvature="0"
                 id="path62"
                 style="fill:#0000ff;fill-opacity:1;fill-rule:nonzero;stroke:#0000ff;stroke-width:0.79701;stroke-linecap:butt;stroke-linejoin:miter;stroke-miterlimit:10;stroke-opacity:1;stroke-dasharray:none" /><path
                 d="m 71.73203,19.92555 c 0,1.10048 -0.89208,1.99255 -1.99256,1.99255 -1.10047,0 -1.99255,-0.89207 -1.99255,-1.99255 0,-1.10046 0.89208,-1.99255 1.99255,-1.99255 1.10048,0 1.99256,0.89209 1.99256,1.99255 z"
                 inkscape:connector-curvature="0"
                 id="path64"
                 style="fill:#0000ff;fill-opacity:1;fill-rule:nonzero;stroke:#0000ff;stroke-width:0.79701;stroke-linecap:butt;stroke-linejoin:miter;stroke-miterlimit:10;stroke-opacity:1;stroke-dasharray:none" /><path
                 d="m 41.84367,9.96277 c 0,1.10048 -0.89207,1.99255 -1.99255,1.99255 -1.10046,0 -1.99255,-0.89207 -1.99255,-1.99255 0,-1.10047 0.89209,-1.99256 1.99255,-1.99256 1.10048,0 1.99255,0.89209 1.99255,1.99256 z"
                 inkscape:connector-curvature="0"
                 id="path66"
                 style="fill:#0000ff;fill-opacity:1;fill-rule:nonzero;stroke:#0000ff;stroke-width:0.79701;stroke-linecap:butt;stroke-linejoin:miter;stroke-miterlimit:10;stroke-opacity:1;stroke-dasharray:none" /></g><g
               id="g68"><path
                 d="m 66.75063,69.73947 c 0,1.10048 -0.89208,1.99256 -1.99256,1.99256 -1.10046,0 -1.99255,-0.89208 -1.99255,-1.99256 0,-1.10047 0.89209,-1.99255 1.99255,-1.99255 1.10048,0 1.99256,0.89208 1.99256,1.99255 z"
                 inkscape:connector-curvature="0"
                 id="path70"
                 style="fill:#000000;fill-opacity:1;fill-rule:nonzero;stroke:#000000;stroke-width:0.79701;stroke-linecap:butt;stroke-linejoin:miter;stroke-miterlimit:10;stroke-opacity:1;stroke-dasharray:none" /></g></g></g></g><g
         transform="translate(87.07,-343.91)"
         id="g72"><g
           id="g74" /><g
           id="g76"><g
             id="g78" /><g
             id="g80"><path
               d="m -9.96277,59.77669 134.81647,0"
               inkscape:connector-curvature="0"
               id="path82"
               style="fill:none;stroke:#000000;stroke-width:0.79701;stroke-linecap:butt;stroke-linejoin:miter;stroke-miterlimit:10;stroke-opacity:1;stroke-dasharray:none" /><g
               transform="translate(124.8537,59.77669)"
               id="g84"><g
                 id="g86"><path
                   d="M 4.66248,0 C 3.28098,0.25902 1.0361,1.0361 -0.51805,1.94269 l 0,-3.88538 C 1.0361,-1.0361 3.28098,-0.25902 4.66248,0"
                   inkscape:connector-curvature="0"
                   id="path88"
                   style="fill:#000000;fill-opacity:1;fill-rule:nonzero;stroke:none" /></g></g><path
               d="m 59.77669,-9.96277 0,134.81647"
               inkscape:connector-curvature="0"
               id="path90"
               style="fill:none;stroke:#000000;stroke-width:0.79701;stroke-linecap:butt;stroke-linejoin:miter;stroke-miterlimit:10;stroke-opacity:1;stroke-dasharray:none" /><g
               transform="matrix(0,1,-1,0,59.77669,124.8537)"
               id="g92"><g
                 id="g94"><path
                   d="M 4.66248,0 C 3.28098,0.25902 1.0361,1.0361 -0.51805,1.94269 l 0,-3.88538 C 1.0361,-1.0361 3.28098,-0.25902 4.66248,0"
                   inkscape:connector-curvature="0"
                   id="path96"
                   style="fill:#000000;fill-opacity:1;fill-rule:nonzero;stroke:none" /></g></g><g
               id="g98"><path
                 d="m 11.95532,99.62782 c 0,1.10048 -0.89207,1.99256 -1.99255,1.99256 -1.10047,0 -1.99256,-0.89208 -1.99256,-1.99256 0,-1.10046 0.89209,-1.99255 1.99256,-1.99255 1.10048,0 1.99255,0.89209 1.99255,1.99255 z"
                 inkscape:connector-curvature="0"
                 id="path100"
                 style="fill:#ff0000;fill-opacity:1;fill-rule:nonzero;stroke:#ff0000;stroke-width:0.79701;stroke-linecap:butt;stroke-linejoin:miter;stroke-miterlimit:10;stroke-opacity:1;stroke-dasharray:none" /><path
                 d="m 21.9181,79.70226 c 0,1.10047 -0.89207,1.99255 -1.99255,1.99255 -1.10046,0 -1.99255,-0.89208 -1.99255,-1.99255 0,-1.10047 0.89209,-1.99256 1.99255,-1.99256 1.10048,0 1.99255,0.89209 1.99255,1.99256 z"
                 inkscape:connector-curvature="0"
                 id="path102"
                 style="fill:#ff0000;fill-opacity:1;fill-rule:nonzero;stroke:#ff0000;stroke-width:0.79701;stroke-linecap:butt;stroke-linejoin:miter;stroke-miterlimit:10;stroke-opacity:1;stroke-dasharray:none" /><path
                 d="m 31.88089,89.66504 c 0,1.10048 -0.89207,1.99256 -1.99255,1.99256 -1.10047,0 -1.99256,-0.89208 -1.99256,-1.99256 0,-1.10046 0.89209,-1.99255 1.99256,-1.99255 1.10048,0 1.99255,0.89209 1.99255,1.99255 z"
                 inkscape:connector-curvature="0"
                 id="path104"
                 style="fill:#ff0000;fill-opacity:1;fill-rule:nonzero;stroke:#ff0000;stroke-width:0.79701;stroke-linecap:butt;stroke-linejoin:miter;stroke-miterlimit:10;stroke-opacity:1;stroke-dasharray:none" /><path
                 d="m 26.89949,69.73947 c 0,1.10048 -0.89207,1.99256 -1.99255,1.99256 -1.10047,0 -1.99256,-0.89208 -1.99256,-1.99256 0,-1.10047 0.89209,-1.99255 1.99256,-1.99255 1.10048,0 1.99255,0.89208 1.99255,1.99255 z"
                 inkscape:connector-curvature="0"
                 id="path106"
                 style="fill:#ff0000;fill-opacity:1;fill-rule:nonzero;stroke:#ff0000;stroke-width:0.79701;stroke-linecap:butt;stroke-linejoin:miter;stroke-miterlimit:10;stroke-opacity:1;stroke-dasharray:none" /><path
                 d="m 51.80646,79.70226 c 0,1.10047 -0.89208,1.99255 -1.99256,1.99255 -1.10046,0 -1.99255,-0.89208 -1.99255,-1.99255 0,-1.10047 0.89209,-1.99256 1.99255,-1.99256 1.10048,0 1.99256,0.89209 1.99256,1.99256 z"
                 inkscape:connector-curvature="0"
                 id="path108"
                 style="fill:#ff0000;fill-opacity:1;fill-rule:nonzero;stroke:#ff0000;stroke-width:0.79701;stroke-linecap:butt;stroke-linejoin:miter;stroke-miterlimit:10;stroke-opacity:1;stroke-dasharray:none" /><path
                 d="m 21.9181,49.8139 c 0,1.10048 -0.89207,1.99256 -1.99255,1.99256 -1.10046,0 -1.99255,-0.89208 -1.99255,-1.99256 0,-1.10046 0.89209,-1.99255 1.99255,-1.99255 1.10048,0 1.99255,0.89209 1.99255,1.99255 z"
                 inkscape:connector-curvature="0"
                 id="path110"
                 style="fill:#ff0000;fill-opacity:1;fill-rule:nonzero;stroke:#ff0000;stroke-width:0.79701;stroke-linecap:butt;stroke-linejoin:miter;stroke-miterlimit:10;stroke-opacity:1;stroke-dasharray:none" /></g><g
               id="g112"><path
                 d="m 101.62038,39.85112 c 0,1.10048 -0.89208,1.99255 -1.99256,1.99255 -1.10046,0 -1.99255,-0.89207 -1.99255,-1.99255 0,-1.10046 0.89209,-1.99255 1.99255,-1.99255 1.10048,0 1.99256,0.89209 1.99256,1.99255 z"
                 inkscape:connector-curvature="0"
                 id="path114"
                 style="fill:#0000ff;fill-opacity:1;fill-rule:nonzero;stroke:#0000ff;stroke-width:0.79701;stroke-linecap:butt;stroke-linejoin:miter;stroke-miterlimit:10;stroke-opacity:1;stroke-dasharray:none" /><path
                 d="m 121.54594,29.88834 c 0,1.10048 -0.89207,1.99255 -1.99255,1.99255 -1.10046,0 -1.99255,-0.89207 -1.99255,-1.99255 0,-1.10047 0.89209,-1.99256 1.99255,-1.99256 1.10048,0 1.99255,0.89209 1.99255,1.99256 z"
                 inkscape:connector-curvature="0"
                 id="path116"
                 style="fill:#0000ff;fill-opacity:1;fill-rule:nonzero;stroke:#0000ff;stroke-width:0.79701;stroke-linecap:butt;stroke-linejoin:miter;stroke-miterlimit:10;stroke-opacity:1;stroke-dasharray:none" /><path
                 d="m 116.56454,49.8139 c 0,1.10048 -0.89207,1.99256 -1.99255,1.99256 -1.10046,0 -1.99255,-0.89208 -1.99255,-1.99256 0,-1.10046 0.89209,-1.99255 1.99255,-1.99255 1.10048,0 1.99255,0.89209 1.99255,1.99255 z"
                 inkscape:connector-curvature="0"
                 id="path118"
                 style="fill:#0000ff;fill-opacity:1;fill-rule:nonzero;stroke:#0000ff;stroke-width:0.79701;stroke-linecap:butt;stroke-linejoin:miter;stroke-miterlimit:10;stroke-opacity:1;stroke-dasharray:none" /><path
                 d="m 126.52733,19.92555 c 0,1.10048 -0.89208,1.99255 -1.99256,1.99255 -1.10046,0 -1.99255,-0.89207 -1.99255,-1.99255 0,-1.10046 0.89209,-1.99255 1.99255,-1.99255 1.10048,0 1.99256,0.89209 1.99256,1.99255 z"
                 inkscape:connector-curvature="0"
                 id="path120"
                 style="fill:#0000ff;fill-opacity:1;fill-rule:nonzero;stroke:#0000ff;stroke-width:0.79701;stroke-linecap:butt;stroke-linejoin:miter;stroke-miterlimit:10;stroke-opacity:1;stroke-dasharray:none" /><path
                 d="m 71.73203,19.92555 c 0,1.10048 -0.89208,1.99255 -1.99256,1.99255 -1.10047,0 -1.99255,-0.89207 -1.99255,-1.99255 0,-1.10046 0.89208,-1.99255 1.99255,-1.99255 1.10048,0 1.99256,0.89209 1.99256,1.99255 z"
                 inkscape:connector-curvature="0"
                 id="path122"
                 style="fill:#0000ff;fill-opacity:1;fill-rule:nonzero;stroke:#0000ff;stroke-width:0.79701;stroke-linecap:butt;stroke-linejoin:miter;stroke-miterlimit:10;stroke-opacity:1;stroke-dasharray:none" /><path
                 d="m 41.84367,9.96277 c 0,1.10048 -0.89207,1.99255 -1.99255,1.99255 -1.10046,0 -1.99255,-0.89207 -1.99255,-1.99255 0,-1.10047 0.89209,-1.99256 1.99255,-1.99256 1.10048,0 1.99255,0.89209 1.99255,1.99256 z"
                 inkscape:connector-curvature="0"
                 id="path124"
                 style="fill:#0000ff;fill-opacity:1;fill-rule:nonzero;stroke:#0000ff;stroke-width:0.79701;stroke-linecap:butt;stroke-linejoin:miter;stroke-miterlimit:10;stroke-opacity:1;stroke-dasharray:none" /></g><g
               id="g126"><path
                 d="m 66.75063,69.73947 c 0,1.10048 -0.89208,1.99256 -1.99256,1.99256 -1.10046,0 -1.99255,-0.89208 -1.99255,-1.99256 0,-1.10047 0.89209,-1.99255 1.99255,-1.99255 1.10048,0 1.99256,0.89208 1.99256,1.99255 z"
                 inkscape:connector-curvature="0"
                 id="path128"
                 style="fill:#000000;fill-opacity:1;fill-rule:nonzero;stroke:#000000;stroke-width:0.79701;stroke-linecap:butt;stroke-linejoin:miter;stroke-miterlimit:10;stroke-opacity:1;stroke-dasharray:none" /></g><g
               id="g130"><path
                 d="M 64.75807,69.73947 15.95882,96.35742"
                 inkscape:connector-curvature="0"
                 id="path132"
                 style="fill:none;stroke:#000000;stroke-width:1.59404004;stroke-linecap:butt;stroke-linejoin:miter;stroke-miterlimit:10;stroke-opacity:1;stroke-dasharray:none" /><g
                 transform="matrix(-0.8799,0.47992,-0.47992,-0.8799,15.95882,96.35742)"
                 id="g134"><g
                   id="g136"><path
                     d="M 6.81448,0 C 4.79533,0.37857 1.51433,1.51433 -0.75716,2.83936 l 0,-5.67872 C 1.51433,-1.51433 4.79533,-0.37857 6.81448,0"
                     inkscape:connector-curvature="0"
                     id="path138"
                     style="fill:#000000;fill-opacity:1;fill-rule:nonzero;stroke:none" /></g></g></g><g
               id="g140"><path
                 d="M 64.75807,69.73947 26.58086,78.22346"
                 inkscape:connector-curvature="0"
                 id="path142"
                 style="fill:none;stroke:#000000;stroke-width:1.59404004;stroke-linecap:butt;stroke-linejoin:miter;stroke-miterlimit:10;stroke-opacity:1;stroke-dasharray:none" /><g
                 transform="matrix(-0.97664,0.21701,-0.21701,-0.97664,26.58086,78.22346)"
                 id="g144"><g
                   id="g146"><path
                     d="M 6.81448,0 C 4.79533,0.37857 1.51433,1.51433 -0.75716,2.83936 l 0,-5.67872 C 1.51433,-1.51433 4.79533,-0.37857 6.81448,0"
                     inkscape:connector-curvature="0"
                     id="path148"
                     style="fill:#000000;fill-opacity:1;fill-rule:nonzero;stroke:none" /></g></g></g><g
               id="g150"><path
                 d="M 64.75807,69.73947 35.8086,86.28215"
                 inkscape:connector-curvature="0"
                 id="path152"
                 style="fill:none;stroke:#000000;stroke-width:1.59404004;stroke-linecap:butt;stroke-linejoin:miter;stroke-miterlimit:10;stroke-opacity:1;stroke-dasharray:none" /><g
                 transform="matrix(-0.86877,0.49643,-0.49643,-0.86877,35.8086,86.28215)"
                 id="g154"><g
                   id="g156"><path
                     d="M 6.81448,0 C 4.79533,0.37857 1.51433,1.51433 -0.75716,2.83936 l 0,-5.67872 C 1.51433,-1.51433 4.79533,-0.37857 6.81448,0"
                     inkscape:connector-curvature="0"
                     id="path158"
                     style="fill:#000000;fill-opacity:1;fill-rule:nonzero;stroke:none" /></g></g></g><g
               id="g160"><path
                 d="m 64.75807,69.73947 -33.03663,0"
                 inkscape:connector-curvature="0"
                 id="path162"
                 style="fill:none;stroke:#000000;stroke-width:1.59404004;stroke-linecap:butt;stroke-linejoin:miter;stroke-miterlimit:10;stroke-opacity:1;stroke-dasharray:none" /><g
                 transform="matrix(-1,0,0,-1,31.72144,69.73947)"
                 id="g164"><g
                   id="g166"><path
                     d="M 6.81448,0 C 4.79533,0.37857 1.51433,1.51433 -0.75716,2.83936 l 0,-5.67872 C 1.51433,-1.51433 4.79533,-0.37857 6.81448,0"
                     inkscape:connector-curvature="0"
                     id="path168"
                     style="fill:#000000;fill-opacity:1;fill-rule:nonzero;stroke:none" /></g></g></g><g
               id="g170"><path
                 d="m 64.75807,69.73947 -9.25673,6.17125"
                 inkscape:connector-curvature="0"
                 id="path172"
                 style="fill:none;stroke:#000000;stroke-width:1.59404004;stroke-linecap:butt;stroke-linejoin:miter;stroke-miterlimit:10;stroke-opacity:1;stroke-dasharray:none" /><g
                 transform="matrix(-0.83461,0.5564,-0.5564,-0.83461,55.50134,75.91072)"
                 id="g174"><g
                   id="g176"><path
                     d="M 6.81448,0 C 4.79533,0.37857 1.51433,1.51433 -0.75716,2.83936 l 0,-5.67872 C 1.51433,-1.51433 4.79533,-0.37857 6.81448,0"
                     inkscape:connector-curvature="0"
                     id="path178"
                     style="fill:#000000;fill-opacity:1;fill-rule:nonzero;stroke:none" /></g></g></g><g
               id="g180"><path
                 d="M 64.75807,69.73947 26.16295,52.58604"
                 inkscape:connector-curvature="0"
                 id="path182"
                 style="fill:none;stroke:#000000;stroke-width:1.59404004;stroke-linecap:butt;stroke-linejoin:miter;stroke-miterlimit:10;stroke-opacity:1;stroke-dasharray:none" /><g
                 transform="matrix(-0.91531,-0.4068,0.4068,-0.91531,26.16295,52.58604)"
                 id="g184"><g
                   id="g186"><path
                     d="M 6.81448,0 C 4.79533,0.37857 1.51433,1.51433 -0.75716,2.83936 l 0,-5.67872 C 1.51433,-1.51433 4.79533,-0.37857 6.81448,0"
                     inkscape:connector-curvature="0"
                     id="path188"
                     style="fill:#000000;fill-opacity:1;fill-rule:nonzero;stroke:none" /></g></g></g></g></g></g><g
         transform="translate(87.07,-505.11)"
         id="g190"><g
           id="g192" /><g
           id="g194"><g
             id="g196" /><g
             id="g198"><path
               d="m -9.96277,59.77669 134.81647,0"
               inkscape:connector-curvature="0"
               id="path200"
               style="fill:none;stroke:#000000;stroke-width:0.79701;stroke-linecap:butt;stroke-linejoin:miter;stroke-miterlimit:10;stroke-opacity:1;stroke-dasharray:none" /><g
               transform="translate(124.8537,59.77669)"
               id="g202"><g
                 id="g204"><path
                   d="M 4.66248,0 C 3.28098,0.25902 1.0361,1.0361 -0.51805,1.94269 l 0,-3.88538 C 1.0361,-1.0361 3.28098,-0.25902 4.66248,0"
                   inkscape:connector-curvature="0"
                   id="path206"
                   style="fill:#000000;fill-opacity:1;fill-rule:nonzero;stroke:none" /></g></g><path
               d="m 59.77669,-9.96277 0,134.81647"
               inkscape:connector-curvature="0"
               id="path208"
               style="fill:none;stroke:#000000;stroke-width:0.79701;stroke-linecap:butt;stroke-linejoin:miter;stroke-miterlimit:10;stroke-opacity:1;stroke-dasharray:none" /><g
               transform="matrix(0,1,-1,0,59.77669,124.8537)"
               id="g210"><g
                 id="g212"><path
                   d="M 4.66248,0 C 3.28098,0.25902 1.0361,1.0361 -0.51805,1.94269 l 0,-3.88538 C 1.0361,-1.0361 3.28098,-0.25902 4.66248,0"
                   inkscape:connector-curvature="0"
                   id="path214"
                   style="fill:#000000;fill-opacity:1;fill-rule:nonzero;stroke:none" /></g></g><g
               id="g216"><path
                 d="m 11.95532,99.62782 c 0,1.10048 -0.89207,1.99256 -1.99255,1.99256 -1.10047,0 -1.99256,-0.89208 -1.99256,-1.99256 0,-1.10046 0.89209,-1.99255 1.99256,-1.99255 1.10048,0 1.99255,0.89209 1.99255,1.99255 z"
                 inkscape:connector-curvature="0"
                 id="path218"
                 style="fill:#ff0000;fill-opacity:1;fill-rule:nonzero;stroke:#ff0000;stroke-width:0.79701;stroke-linecap:butt;stroke-linejoin:miter;stroke-miterlimit:10;stroke-opacity:1;stroke-dasharray:none" /><path
                 d="m 21.9181,79.70226 c 0,1.10047 -0.89207,1.99255 -1.99255,1.99255 -1.10046,0 -1.99255,-0.89208 -1.99255,-1.99255 0,-1.10047 0.89209,-1.99256 1.99255,-1.99256 1.10048,0 1.99255,0.89209 1.99255,1.99256 z"
                 inkscape:connector-curvature="0"
                 id="path220"
                 style="fill:#ff0000;fill-opacity:1;fill-rule:nonzero;stroke:#ff0000;stroke-width:0.79701;stroke-linecap:butt;stroke-linejoin:miter;stroke-miterlimit:10;stroke-opacity:1;stroke-dasharray:none" /><path
                 d="m 31.88089,89.66504 c 0,1.10048 -0.89207,1.99256 -1.99255,1.99256 -1.10047,0 -1.99256,-0.89208 -1.99256,-1.99256 0,-1.10046 0.89209,-1.99255 1.99256,-1.99255 1.10048,0 1.99255,0.89209 1.99255,1.99255 z"
                 inkscape:connector-curvature="0"
                 id="path222"
                 style="fill:#ff0000;fill-opacity:1;fill-rule:nonzero;stroke:#ff0000;stroke-width:0.79701;stroke-linecap:butt;stroke-linejoin:miter;stroke-miterlimit:10;stroke-opacity:1;stroke-dasharray:none" /><path
                 d="m 26.89949,69.73947 c 0,1.10048 -0.89207,1.99256 -1.99255,1.99256 -1.10047,0 -1.99256,-0.89208 -1.99256,-1.99256 0,-1.10047 0.89209,-1.99255 1.99256,-1.99255 1.10048,0 1.99255,0.89208 1.99255,1.99255 z"
                 inkscape:connector-curvature="0"
                 id="path224"
                 style="fill:#ff0000;fill-opacity:1;fill-rule:nonzero;stroke:#ff0000;stroke-width:0.79701;stroke-linecap:butt;stroke-linejoin:miter;stroke-miterlimit:10;stroke-opacity:1;stroke-dasharray:none" /><path
                 d="m 51.80646,79.70226 c 0,1.10047 -0.89208,1.99255 -1.99256,1.99255 -1.10046,0 -1.99255,-0.89208 -1.99255,-1.99255 0,-1.10047 0.89209,-1.99256 1.99255,-1.99256 1.10048,0 1.99256,0.89209 1.99256,1.99256 z"
                 inkscape:connector-curvature="0"
                 id="path226"
                 style="fill:#ff0000;fill-opacity:1;fill-rule:nonzero;stroke:#ff0000;stroke-width:0.79701;stroke-linecap:butt;stroke-linejoin:miter;stroke-miterlimit:10;stroke-opacity:1;stroke-dasharray:none" /><path
                 d="m 21.9181,49.8139 c 0,1.10048 -0.89207,1.99256 -1.99255,1.99256 -1.10046,0 -1.99255,-0.89208 -1.99255,-1.99256 0,-1.10046 0.89209,-1.99255 1.99255,-1.99255 1.10048,0 1.99255,0.89209 1.99255,1.99255 z"
                 inkscape:connector-curvature="0"
                 id="path228"
                 style="fill:#ff0000;fill-opacity:1;fill-rule:nonzero;stroke:#ff0000;stroke-width:0.79701;stroke-linecap:butt;stroke-linejoin:miter;stroke-miterlimit:10;stroke-opacity:1;stroke-dasharray:none" /></g><g
               id="g230"><path
                 d="m 101.62038,39.85112 c 0,1.10048 -0.89208,1.99255 -1.99256,1.99255 -1.10046,0 -1.99255,-0.89207 -1.99255,-1.99255 0,-1.10046 0.89209,-1.99255 1.99255,-1.99255 1.10048,0 1.99256,0.89209 1.99256,1.99255 z"
                 inkscape:connector-curvature="0"
                 id="path232"
                 style="fill:#0000ff;fill-opacity:1;fill-rule:nonzero;stroke:#0000ff;stroke-width:0.79701;stroke-linecap:butt;stroke-linejoin:miter;stroke-miterlimit:10;stroke-opacity:1;stroke-dasharray:none" /><path
                 d="m 121.54594,29.88834 c 0,1.10048 -0.89207,1.99255 -1.99255,1.99255 -1.10046,0 -1.99255,-0.89207 -1.99255,-1.99255 0,-1.10047 0.89209,-1.99256 1.99255,-1.99256 1.10048,0 1.99255,0.89209 1.99255,1.99256 z"
                 inkscape:connector-curvature="0"
                 id="path234"
                 style="fill:#0000ff;fill-opacity:1;fill-rule:nonzero;stroke:#0000ff;stroke-width:0.79701;stroke-linecap:butt;stroke-linejoin:miter;stroke-miterlimit:10;stroke-opacity:1;stroke-dasharray:none" /><path
                 d="m 116.56454,49.8139 c 0,1.10048 -0.89207,1.99256 -1.99255,1.99256 -1.10046,0 -1.99255,-0.89208 -1.99255,-1.99256 0,-1.10046 0.89209,-1.99255 1.99255,-1.99255 1.10048,0 1.99255,0.89209 1.99255,1.99255 z"
                 inkscape:connector-curvature="0"
                 id="path236"
                 style="fill:#0000ff;fill-opacity:1;fill-rule:nonzero;stroke:#0000ff;stroke-width:0.79701;stroke-linecap:butt;stroke-linejoin:miter;stroke-miterlimit:10;stroke-opacity:1;stroke-dasharray:none" /><path
                 d="m 126.52733,19.92555 c 0,1.10048 -0.89208,1.99255 -1.99256,1.99255 -1.10046,0 -1.99255,-0.89207 -1.99255,-1.99255 0,-1.10046 0.89209,-1.99255 1.99255,-1.99255 1.10048,0 1.99256,0.89209 1.99256,1.99255 z"
                 inkscape:connector-curvature="0"
                 id="path238"
                 style="fill:#0000ff;fill-opacity:1;fill-rule:nonzero;stroke:#0000ff;stroke-width:0.79701;stroke-linecap:butt;stroke-linejoin:miter;stroke-miterlimit:10;stroke-opacity:1;stroke-dasharray:none" /><path
                 d="m 71.73203,19.92555 c 0,1.10048 -0.89208,1.99255 -1.99256,1.99255 -1.10047,0 -1.99255,-0.89207 -1.99255,-1.99255 0,-1.10046 0.89208,-1.99255 1.99255,-1.99255 1.10048,0 1.99256,0.89209 1.99256,1.99255 z"
                 inkscape:connector-curvature="0"
                 id="path240"
                 style="fill:#0000ff;fill-opacity:1;fill-rule:nonzero;stroke:#0000ff;stroke-width:0.79701;stroke-linecap:butt;stroke-linejoin:miter;stroke-miterlimit:10;stroke-opacity:1;stroke-dasharray:none" /><path
                 d="m 41.84367,9.96277 c 0,1.10048 -0.89207,1.99255 -1.99255,1.99255 -1.10046,0 -1.99255,-0.89207 -1.99255,-1.99255 0,-1.10047 0.89209,-1.99256 1.99255,-1.99256 1.10048,0 1.99255,0.89209 1.99255,1.99256 z"
                 inkscape:connector-curvature="0"
                 id="path242"
                 style="fill:#0000ff;fill-opacity:1;fill-rule:nonzero;stroke:#0000ff;stroke-width:0.79701;stroke-linecap:butt;stroke-linejoin:miter;stroke-miterlimit:10;stroke-opacity:1;stroke-dasharray:none" /></g><g
               id="g244"><path
                 d="m 66.75063,69.73947 c 0,1.10048 -0.89208,1.99256 -1.99256,1.99256 -1.10046,0 -1.99255,-0.89208 -1.99255,-1.99256 0,-1.10047 0.89209,-1.99255 1.99255,-1.99255 1.10048,0 1.99256,0.89208 1.99256,1.99255 z"
                 inkscape:connector-curvature="0"
                 id="path246"
                 style="fill:#000000;fill-opacity:1;fill-rule:nonzero;stroke:#000000;stroke-width:0.79701;stroke-linecap:butt;stroke-linejoin:miter;stroke-miterlimit:10;stroke-opacity:1;stroke-dasharray:none" /></g><g
               id="g248"><path
                 d="M 64.75807,69.73947 94.43565,44.3015"
                 inkscape:connector-curvature="0"
                 id="path250"
                 style="fill:none;stroke:#000000;stroke-width:1.59404004;stroke-linecap:butt;stroke-linejoin:miter;stroke-miterlimit:10;stroke-opacity:1;stroke-dasharray:none" /><g
                 transform="matrix(0.76193,-0.65308,0.65308,0.76193,94.43565,44.3015)"
                 id="g252"><g
                   id="g254"><path
                     d="M 6.81448,0 C 4.79533,0.37857 1.51433,1.51433 -0.75716,2.83936 l 0,-5.67872 C 1.51433,-1.51433 4.79533,-0.37857 6.81448,0"
                     inkscape:connector-curvature="0"
                     id="path256"
                     style="fill:#000000;fill-opacity:1;fill-rule:nonzero;stroke:none" /></g></g></g><g
               id="g258"><path
                 d="M 64.75807,69.73947 114.0232,33.9102"
                 inkscape:connector-curvature="0"
                 id="path260"
                 style="fill:none;stroke:#000000;stroke-width:1.59404004;stroke-linecap:butt;stroke-linejoin:miter;stroke-miterlimit:10;stroke-opacity:1;stroke-dasharray:none" /><g
                 transform="matrix(0.81154,-0.5902,0.5902,0.81154,114.0232,33.9102)"
                 id="g262"><g
                   id="g264"><path
                     d="M 6.81448,0 C 4.79533,0.37857 1.51433,1.51433 -0.75716,2.83936 l 0,-5.67872 C 1.51433,-1.51433 4.79533,-0.37857 6.81448,0"
                     inkscape:connector-curvature="0"
                     id="path266"
                     style="fill:#000000;fill-opacity:1;fill-rule:nonzero;stroke:none" /></g></g></g><g
               id="g268"><path
                 d="M 64.75807,69.73947 108.22325,52.35333"
                 inkscape:connector-curvature="0"
                 id="path270"
                 style="fill:none;stroke:#000000;stroke-width:1.59404004;stroke-linecap:butt;stroke-linejoin:miter;stroke-miterlimit:10;stroke-opacity:1;stroke-dasharray:none" /><g
                 transform="matrix(0.93166,-0.37265,0.37265,0.93166,108.22325,52.35333)"
                 id="g272"><g
                   id="g274"><path
                     d="M 6.81448,0 C 4.79533,0.37857 1.51433,1.51433 -0.75716,2.83936 l 0,-5.67872 C 1.51433,-1.51433 4.79533,-0.37857 6.81448,0"
                     inkscape:connector-curvature="0"
                     id="path276"
                     style="fill:#000000;fill-opacity:1;fill-rule:nonzero;stroke:none" /></g></g></g><g
               id="g278"><path
                 d="M 64.75807,69.73947 119.29115,24.29514"
                 inkscape:connector-curvature="0"
                 id="path280"
                 style="fill:none;stroke:#000000;stroke-width:1.59404004;stroke-linecap:butt;stroke-linejoin:miter;stroke-miterlimit:10;stroke-opacity:1;stroke-dasharray:none" /><g
                 transform="matrix(0.76949,-0.64122,0.64122,0.76949,119.29115,24.29514)"
                 id="g282"><g
                   id="g284"><path
                     d="M 6.81448,0 C 4.79533,0.37857 1.51433,1.51433 -0.75716,2.83936 l 0,-5.67872 C 1.51433,-1.51433 4.79533,-0.37857 6.81448,0"
                     inkscape:connector-curvature="0"
                     id="path286"
                     style="fill:#000000;fill-opacity:1;fill-rule:nonzero;stroke:none" /></g></g></g><g
               id="g288"><path
                 d="M 64.75807,69.73947 69.06091,26.71259"
                 inkscape:connector-curvature="0"
                 id="path290"
                 style="fill:none;stroke:#000000;stroke-width:1.59404004;stroke-linecap:butt;stroke-linejoin:miter;stroke-miterlimit:10;stroke-opacity:1;stroke-dasharray:none" /><g
                 transform="matrix(0.09958,-0.99597,0.99597,0.09958,69.06091,26.71259)"
                 id="g292"><g
                   id="g294"><path
                     d="M 6.81448,0 C 4.79533,0.37857 1.51433,1.51433 -0.75716,2.83936 l 0,-5.67872 C 1.51433,-1.51433 4.79533,-0.37857 6.81448,0"
                     inkscape:connector-curvature="0"
                     id="path296"
                     style="fill:#000000;fill-opacity:1;fill-rule:nonzero;stroke:none" /></g></g></g><g
               id="g298"><path
                 d="M 64.75807,69.73947 42.47809,16.26785"
                 inkscape:connector-curvature="0"
                 id="path300"
                 style="fill:none;stroke:#000000;stroke-width:1.59404004;stroke-linecap:butt;stroke-linejoin:miter;stroke-miterlimit:10;stroke-opacity:1;stroke-dasharray:none" /><g
                 transform="matrix(-0.3855,-0.92525,0.92525,-0.3855,42.47809,16.26785)"
                 id="g302"><g
                   id="g304"><path
                     d="M 6.81448,0 C 4.79533,0.37857 1.51433,1.51433 -0.75716,2.83936 l 0,-5.67872 C 1.51433,-1.51433 4.79533,-0.37857 6.81448,0"
                     inkscape:connector-curvature="0"
                     id="path306"
                     style="fill:#000000;fill-opacity:1;fill-rule:nonzero;stroke:none" /></g></g></g></g></g></g><text
         transform="matrix(1,0,0,-1,231.13,-630.64)"
         id="text308"><tspan
           x="0"
           y="0"
           id="tspan310"
           style="font-size:9.9630003px;font-variant:normal;font-weight:normal;writing-mode:lr-tb;fill:#000000;fill-opacity:1;fill-rule:nonzero;stroke:none;font-family:CMR10;-inkscape-font-specification:CMR10">1</tspan></text>
</g></g></svg>